<mxfile host="Electron" modified="2024-06-15T02:40:46.952Z" agent="Mozilla/5.0 (X11; Linux x86_64) AppleWebKit/537.36 (KHTML, like Gecko) draw.io/24.5.3 Chrome/124.0.6367.207 Electron/30.0.6 Safari/537.36" etag="EhDeQ-Sp4kY0JiH4KHei" version="24.5.3" type="device">
  <diagram name="Página-1" id="bMrL_FU8jLnrd0kmYI3D">
    <mxGraphModel dx="1114" dy="695" grid="1" gridSize="10" guides="1" tooltips="1" connect="1" arrows="1" fold="1" page="1" pageScale="1" pageWidth="850" pageHeight="1100" math="0" shadow="0">
      <root>
        <mxCell id="0" />
        <mxCell id="1" parent="0" />
        <mxCell id="PMi37SlV8Yfilclsbth5-3" style="edgeStyle=orthogonalEdgeStyle;rounded=0;orthogonalLoop=1;jettySize=auto;html=1;entryX=0.5;entryY=0;entryDx=0;entryDy=0;" edge="1" parent="1" source="PMi37SlV8Yfilclsbth5-1" target="PMi37SlV8Yfilclsbth5-2">
          <mxGeometry relative="1" as="geometry" />
        </mxCell>
        <mxCell id="PMi37SlV8Yfilclsbth5-1" value="INICIO" style="ellipse;whiteSpace=wrap;html=1;" vertex="1" parent="1">
          <mxGeometry x="380" width="120" height="80" as="geometry" />
        </mxCell>
        <mxCell id="PMi37SlV8Yfilclsbth5-5" style="edgeStyle=orthogonalEdgeStyle;rounded=0;orthogonalLoop=1;jettySize=auto;html=1;" edge="1" parent="1" source="PMi37SlV8Yfilclsbth5-2" target="PMi37SlV8Yfilclsbth5-4">
          <mxGeometry relative="1" as="geometry" />
        </mxCell>
        <mxCell id="PMi37SlV8Yfilclsbth5-2" value="VALIDAR CREDENCIALES" style="whiteSpace=wrap;html=1;aspect=fixed;" vertex="1" parent="1">
          <mxGeometry x="385" y="120" width="110" height="110" as="geometry" />
        </mxCell>
        <mxCell id="PMi37SlV8Yfilclsbth5-4" value="INGRESAR&lt;div&gt;USUARIO:&lt;/div&gt;&lt;div&gt;CONTRASEÑA:&lt;/div&gt;" style="shape=parallelogram;perimeter=parallelogramPerimeter;whiteSpace=wrap;html=1;fixedSize=1;rotation=0;" vertex="1" parent="1">
          <mxGeometry x="355" y="280" width="170" height="80" as="geometry" />
        </mxCell>
        <mxCell id="PMi37SlV8Yfilclsbth5-7" style="edgeStyle=orthogonalEdgeStyle;rounded=0;orthogonalLoop=1;jettySize=auto;html=1;entryX=0;entryY=0.5;entryDx=0;entryDy=0;exitX=0;exitY=0.5;exitDx=0;exitDy=0;" edge="1" parent="1" source="PMi37SlV8Yfilclsbth5-6" target="PMi37SlV8Yfilclsbth5-4">
          <mxGeometry relative="1" as="geometry">
            <mxPoint x="160" y="320" as="targetPoint" />
            <Array as="points">
              <mxPoint x="290" y="485" />
              <mxPoint x="290" y="320" />
            </Array>
          </mxGeometry>
        </mxCell>
        <mxCell id="PMi37SlV8Yfilclsbth5-12" style="edgeStyle=orthogonalEdgeStyle;rounded=0;orthogonalLoop=1;jettySize=auto;html=1;entryX=0;entryY=0.5;entryDx=0;entryDy=0;" edge="1" parent="1" source="PMi37SlV8Yfilclsbth5-6" target="PMi37SlV8Yfilclsbth5-11">
          <mxGeometry relative="1" as="geometry" />
        </mxCell>
        <mxCell id="PMi37SlV8Yfilclsbth5-6" value="EL USUARIO ES CORRECTO?" style="rhombus;whiteSpace=wrap;html=1;" vertex="1" parent="1">
          <mxGeometry x="377.5" y="420" width="125" height="130" as="geometry" />
        </mxCell>
        <mxCell id="PMi37SlV8Yfilclsbth5-8" value="NO" style="text;html=1;align=center;verticalAlign=middle;resizable=0;points=[];autosize=1;strokeColor=none;fillColor=none;" vertex="1" parent="1">
          <mxGeometry x="350" y="448" width="40" height="30" as="geometry" />
        </mxCell>
        <mxCell id="PMi37SlV8Yfilclsbth5-10" value="SI" style="text;html=1;align=center;verticalAlign=middle;resizable=0;points=[];autosize=1;strokeColor=none;fillColor=none;" vertex="1" parent="1">
          <mxGeometry x="495" y="448" width="30" height="30" as="geometry" />
        </mxCell>
        <mxCell id="PMi37SlV8Yfilclsbth5-14" style="edgeStyle=orthogonalEdgeStyle;rounded=0;orthogonalLoop=1;jettySize=auto;html=1;entryX=0.5;entryY=0;entryDx=0;entryDy=0;" edge="1" parent="1" source="PMi37SlV8Yfilclsbth5-11" target="PMi37SlV8Yfilclsbth5-13">
          <mxGeometry relative="1" as="geometry" />
        </mxCell>
        <mxCell id="PMi37SlV8Yfilclsbth5-11" value="SELECIONAR LOS PRODUCTOS" style="rounded=0;whiteSpace=wrap;html=1;" vertex="1" parent="1">
          <mxGeometry x="660" y="455" width="150" height="60" as="geometry" />
        </mxCell>
        <mxCell id="PMi37SlV8Yfilclsbth5-16" style="edgeStyle=orthogonalEdgeStyle;rounded=0;orthogonalLoop=1;jettySize=auto;html=1;entryX=1;entryY=0;entryDx=0;entryDy=27.5;entryPerimeter=0;" edge="1" parent="1" source="PMi37SlV8Yfilclsbth5-13" target="PMi37SlV8Yfilclsbth5-15">
          <mxGeometry relative="1" as="geometry">
            <mxPoint x="570" y="610" as="targetPoint" />
          </mxGeometry>
        </mxCell>
        <mxCell id="PMi37SlV8Yfilclsbth5-19" style="edgeStyle=orthogonalEdgeStyle;rounded=0;orthogonalLoop=1;jettySize=auto;html=1;entryX=0.5;entryY=0;entryDx=0;entryDy=0;" edge="1" parent="1" source="PMi37SlV8Yfilclsbth5-13" target="PMi37SlV8Yfilclsbth5-18">
          <mxGeometry relative="1" as="geometry" />
        </mxCell>
        <mxCell id="PMi37SlV8Yfilclsbth5-13" value="BUSCAR EL PRODUCTO:&lt;div&gt;CODIGO, NOMBRE&lt;/div&gt;" style="shape=parallelogram;perimeter=parallelogramPerimeter;whiteSpace=wrap;html=1;fixedSize=1;" vertex="1" parent="1">
          <mxGeometry x="650" y="600" width="170" height="70" as="geometry" />
        </mxCell>
        <mxCell id="PMi37SlV8Yfilclsbth5-17" style="edgeStyle=orthogonalEdgeStyle;rounded=0;orthogonalLoop=1;jettySize=auto;html=1;entryX=0;entryY=0.75;entryDx=0;entryDy=0;" edge="1" parent="1" source="PMi37SlV8Yfilclsbth5-15" target="PMi37SlV8Yfilclsbth5-13">
          <mxGeometry relative="1" as="geometry" />
        </mxCell>
        <mxCell id="PMi37SlV8Yfilclsbth5-15" value="" style="shape=cylinder3;whiteSpace=wrap;html=1;boundedLbl=1;backgroundOutline=1;size=15;" vertex="1" parent="1">
          <mxGeometry x="410" y="600" width="90" height="90" as="geometry" />
        </mxCell>
        <mxCell id="PMi37SlV8Yfilclsbth5-20" style="edgeStyle=orthogonalEdgeStyle;rounded=0;orthogonalLoop=1;jettySize=auto;html=1;entryX=1;entryY=0.5;entryDx=0;entryDy=0;exitX=1;exitY=0.5;exitDx=0;exitDy=0;" edge="1" parent="1" source="PMi37SlV8Yfilclsbth5-18" target="PMi37SlV8Yfilclsbth5-13">
          <mxGeometry relative="1" as="geometry">
            <Array as="points">
              <mxPoint x="825" y="800" />
              <mxPoint x="825" y="635" />
            </Array>
          </mxGeometry>
        </mxCell>
        <mxCell id="PMi37SlV8Yfilclsbth5-24" style="edgeStyle=orthogonalEdgeStyle;rounded=0;orthogonalLoop=1;jettySize=auto;html=1;" edge="1" parent="1" source="PMi37SlV8Yfilclsbth5-18" target="PMi37SlV8Yfilclsbth5-23">
          <mxGeometry relative="1" as="geometry" />
        </mxCell>
        <mxCell id="PMi37SlV8Yfilclsbth5-18" value="SE HALLÓ EL PRODUCTO?" style="rhombus;whiteSpace=wrap;html=1;" vertex="1" parent="1">
          <mxGeometry x="665" y="738" width="140" height="120" as="geometry" />
        </mxCell>
        <mxCell id="PMi37SlV8Yfilclsbth5-21" value="NO" style="text;html=1;align=center;verticalAlign=middle;resizable=0;points=[];autosize=1;strokeColor=none;fillColor=none;" vertex="1" parent="1">
          <mxGeometry x="790" y="758" width="40" height="30" as="geometry" />
        </mxCell>
        <mxCell id="PMi37SlV8Yfilclsbth5-22" value="SI" style="text;html=1;align=center;verticalAlign=middle;resizable=0;points=[];autosize=1;strokeColor=none;fillColor=none;" vertex="1" parent="1">
          <mxGeometry x="645" y="768" width="30" height="30" as="geometry" />
        </mxCell>
        <mxCell id="PMi37SlV8Yfilclsbth5-26" style="edgeStyle=orthogonalEdgeStyle;rounded=0;orthogonalLoop=1;jettySize=auto;html=1;entryX=1;entryY=0.5;entryDx=0;entryDy=0;" edge="1" parent="1" source="PMi37SlV8Yfilclsbth5-23" target="PMi37SlV8Yfilclsbth5-28">
          <mxGeometry relative="1" as="geometry" />
        </mxCell>
        <mxCell id="PMi37SlV8Yfilclsbth5-23" value="INGRESA LA CANTIDAD:&lt;div&gt;1... n&amp;nbsp;&lt;/div&gt;" style="shape=parallelogram;perimeter=parallelogramPerimeter;whiteSpace=wrap;html=1;fixedSize=1;" vertex="1" parent="1">
          <mxGeometry x="450" y="768" width="120" height="60" as="geometry" />
        </mxCell>
        <mxCell id="PMi37SlV8Yfilclsbth5-27" style="edgeStyle=orthogonalEdgeStyle;rounded=0;orthogonalLoop=1;jettySize=auto;html=1;entryX=0.127;entryY=0.967;entryDx=0;entryDy=0;entryPerimeter=0;" edge="1" parent="1" source="PMi37SlV8Yfilclsbth5-25" target="PMi37SlV8Yfilclsbth5-11">
          <mxGeometry relative="1" as="geometry">
            <mxPoint x="680" y="530" as="targetPoint" />
            <Array as="points">
              <mxPoint x="120" y="580" />
              <mxPoint x="679" y="580" />
            </Array>
          </mxGeometry>
        </mxCell>
        <mxCell id="PMi37SlV8Yfilclsbth5-25" value="REPETIR LAS VECES QUE SEA NECESARIO" style="shape=trapezoid;perimeter=trapezoidPerimeter;whiteSpace=wrap;html=1;fixedSize=1;" vertex="1" parent="1">
          <mxGeometry x="40" y="754" width="170" height="88" as="geometry" />
        </mxCell>
        <mxCell id="PMi37SlV8Yfilclsbth5-29" style="edgeStyle=orthogonalEdgeStyle;rounded=0;orthogonalLoop=1;jettySize=auto;html=1;" edge="1" parent="1" source="PMi37SlV8Yfilclsbth5-28" target="PMi37SlV8Yfilclsbth5-25">
          <mxGeometry relative="1" as="geometry" />
        </mxCell>
        <mxCell id="PMi37SlV8Yfilclsbth5-34" style="edgeStyle=orthogonalEdgeStyle;rounded=0;orthogonalLoop=1;jettySize=auto;html=1;entryX=0.5;entryY=0;entryDx=0;entryDy=0;" edge="1" parent="1" source="PMi37SlV8Yfilclsbth5-28" target="PMi37SlV8Yfilclsbth5-33">
          <mxGeometry relative="1" as="geometry" />
        </mxCell>
        <mxCell id="PMi37SlV8Yfilclsbth5-28" value="DESEA AGG MAS PROD?" style="rhombus;whiteSpace=wrap;html=1;" vertex="1" parent="1">
          <mxGeometry x="280" y="739" width="120" height="118" as="geometry" />
        </mxCell>
        <mxCell id="PMi37SlV8Yfilclsbth5-30" value="SI" style="text;html=1;align=center;verticalAlign=middle;resizable=0;points=[];autosize=1;strokeColor=none;fillColor=none;" vertex="1" parent="1">
          <mxGeometry x="265" y="758" width="30" height="30" as="geometry" />
        </mxCell>
        <mxCell id="PMi37SlV8Yfilclsbth5-31" value="NO" style="text;html=1;align=center;verticalAlign=middle;resizable=0;points=[];autosize=1;strokeColor=none;fillColor=none;" vertex="1" parent="1">
          <mxGeometry x="340" y="838" width="40" height="30" as="geometry" />
        </mxCell>
        <mxCell id="PMi37SlV8Yfilclsbth5-37" style="edgeStyle=orthogonalEdgeStyle;rounded=0;orthogonalLoop=1;jettySize=auto;html=1;entryX=0;entryY=0.5;entryDx=0;entryDy=0;" edge="1" parent="1" source="PMi37SlV8Yfilclsbth5-32" target="PMi37SlV8Yfilclsbth5-36">
          <mxGeometry relative="1" as="geometry" />
        </mxCell>
        <mxCell id="PMi37SlV8Yfilclsbth5-32" value="LISTA:&lt;div&gt;PROD1: VALOR x CANT.&lt;/div&gt;" style="shape=parallelogram;perimeter=parallelogramPerimeter;whiteSpace=wrap;html=1;fixedSize=1;" vertex="1" parent="1">
          <mxGeometry x="507.5" y="915" width="157.5" height="90" as="geometry" />
        </mxCell>
        <mxCell id="PMi37SlV8Yfilclsbth5-35" style="edgeStyle=orthogonalEdgeStyle;rounded=0;orthogonalLoop=1;jettySize=auto;html=1;entryX=0;entryY=0.5;entryDx=0;entryDy=0;" edge="1" parent="1" source="PMi37SlV8Yfilclsbth5-33" target="PMi37SlV8Yfilclsbth5-32">
          <mxGeometry relative="1" as="geometry" />
        </mxCell>
        <mxCell id="PMi37SlV8Yfilclsbth5-33" value="LA LISTA CON LOS PRODUCTOS SE IRÁ ACTUALIZANDO" style="rounded=0;whiteSpace=wrap;html=1;" vertex="1" parent="1">
          <mxGeometry x="265" y="920" width="150" height="80" as="geometry" />
        </mxCell>
        <mxCell id="PMi37SlV8Yfilclsbth5-39" style="edgeStyle=orthogonalEdgeStyle;rounded=0;orthogonalLoop=1;jettySize=auto;html=1;entryX=0.5;entryY=0;entryDx=0;entryDy=0;" edge="1" parent="1" source="PMi37SlV8Yfilclsbth5-36" target="PMi37SlV8Yfilclsbth5-42">
          <mxGeometry relative="1" as="geometry" />
        </mxCell>
        <mxCell id="PMi37SlV8Yfilclsbth5-36" value="SE GUARDÓ EN MEMORIA" style="shape=internalStorage;whiteSpace=wrap;html=1;backgroundOutline=1;" vertex="1" parent="1">
          <mxGeometry x="740" y="915" width="80" height="80" as="geometry" />
        </mxCell>
        <mxCell id="PMi37SlV8Yfilclsbth5-40" style="edgeStyle=orthogonalEdgeStyle;rounded=0;orthogonalLoop=1;jettySize=auto;html=1;entryX=0;entryY=0.75;entryDx=0;entryDy=0;exitX=0;exitY=0.5;exitDx=0;exitDy=0;" edge="1" parent="1" source="PMi37SlV8Yfilclsbth5-38" target="PMi37SlV8Yfilclsbth5-11">
          <mxGeometry relative="1" as="geometry">
            <mxPoint x="20" y="530" as="targetPoint" />
            <mxPoint x="30" y="1380" as="sourcePoint" />
            <Array as="points">
              <mxPoint x="30" y="1305" />
              <mxPoint x="30" y="500" />
            </Array>
          </mxGeometry>
        </mxCell>
        <mxCell id="PMi37SlV8Yfilclsbth5-38" value="DESEA IMPRIMIR?" style="rhombus;whiteSpace=wrap;html=1;" vertex="1" parent="1">
          <mxGeometry x="700" y="1240" width="130" height="130" as="geometry" />
        </mxCell>
        <mxCell id="PMi37SlV8Yfilclsbth5-41" value="NO" style="text;html=1;align=center;verticalAlign=middle;resizable=0;points=[];autosize=1;strokeColor=none;fillColor=none;" vertex="1" parent="1">
          <mxGeometry x="665" y="1280" width="40" height="30" as="geometry" />
        </mxCell>
        <mxCell id="PMi37SlV8Yfilclsbth5-45" style="edgeStyle=orthogonalEdgeStyle;rounded=0;orthogonalLoop=1;jettySize=auto;html=1;entryX=0.5;entryY=0;entryDx=0;entryDy=0;" edge="1" parent="1" source="PMi37SlV8Yfilclsbth5-42" target="PMi37SlV8Yfilclsbth5-38">
          <mxGeometry relative="1" as="geometry" />
        </mxCell>
        <mxCell id="PMi37SlV8Yfilclsbth5-42" value="GUARDANDO RECIBO EN FORMATO PDF&amp;nbsp;" style="rounded=0;whiteSpace=wrap;html=1;" vertex="1" parent="1">
          <mxGeometry x="675" y="1070" width="170" height="100" as="geometry" />
        </mxCell>
        <mxCell id="PMi37SlV8Yfilclsbth5-43" style="edgeStyle=orthogonalEdgeStyle;rounded=0;orthogonalLoop=1;jettySize=auto;html=1;" edge="1" parent="1" source="PMi37SlV8Yfilclsbth5-38" target="PMi37SlV8Yfilclsbth5-47">
          <mxGeometry relative="1" as="geometry">
            <mxPoint x="760" y="1510" as="targetPoint" />
          </mxGeometry>
        </mxCell>
        <mxCell id="PMi37SlV8Yfilclsbth5-46" value="SI" style="text;html=1;align=center;verticalAlign=middle;resizable=0;points=[];autosize=1;strokeColor=none;fillColor=none;" vertex="1" parent="1">
          <mxGeometry x="765" y="1358" width="30" height="30" as="geometry" />
        </mxCell>
        <mxCell id="PMi37SlV8Yfilclsbth5-49" style="edgeStyle=orthogonalEdgeStyle;rounded=0;orthogonalLoop=1;jettySize=auto;html=1;entryX=0.5;entryY=0;entryDx=0;entryDy=0;" edge="1" parent="1" source="PMi37SlV8Yfilclsbth5-47" target="PMi37SlV8Yfilclsbth5-48">
          <mxGeometry relative="1" as="geometry" />
        </mxCell>
        <mxCell id="PMi37SlV8Yfilclsbth5-47" value="IMPRIMIENDO RECIBO" style="shape=parallelogram;perimeter=parallelogramPerimeter;whiteSpace=wrap;html=1;fixedSize=1;" vertex="1" parent="1">
          <mxGeometry x="705" y="1450" width="120" height="60" as="geometry" />
        </mxCell>
        <mxCell id="PMi37SlV8Yfilclsbth5-51" style="edgeStyle=orthogonalEdgeStyle;rounded=0;orthogonalLoop=1;jettySize=auto;html=1;entryX=0.5;entryY=0;entryDx=0;entryDy=0;exitX=0.5;exitY=0;exitDx=0;exitDy=0;" edge="1" parent="1" source="PMi37SlV8Yfilclsbth5-48" target="PMi37SlV8Yfilclsbth5-50">
          <mxGeometry relative="1" as="geometry">
            <Array as="points">
              <mxPoint x="765" y="1610" />
              <mxPoint x="685" y="1610" />
              <mxPoint x="685" y="1695" />
              <mxPoint x="760" y="1695" />
            </Array>
          </mxGeometry>
        </mxCell>
        <mxCell id="PMi37SlV8Yfilclsbth5-48" value="RECIBO IMPRESO" style="shape=document;whiteSpace=wrap;html=1;boundedLbl=1;" vertex="1" parent="1">
          <mxGeometry x="705" y="1580" width="120" height="80" as="geometry" />
        </mxCell>
        <mxCell id="PMi37SlV8Yfilclsbth5-50" value="FIN" style="ellipse;whiteSpace=wrap;html=1;" vertex="1" parent="1">
          <mxGeometry x="700" y="1730" width="120" height="80" as="geometry" />
        </mxCell>
      </root>
    </mxGraphModel>
  </diagram>
</mxfile>
